<svg width="16" height="4" viewBox="0 0 16 4" fill="none" xmlns="http://www.w3.org/2000/svg">
<path d="M7.99998 2.83333C8.46022 2.83333 8.83331 2.46023 8.83331 2C8.83331 1.53976 8.46022 1.16666 7.99998 1.16666C7.53974 1.16666 7.16665 1.53976 7.16665 2C7.16665 2.46023 7.53974 2.83333 7.99998 2.83333Z" stroke="currentColor" stroke-linecap="round" stroke-linejoin="round"/>
<path d="M13.8333 2.83333C14.2935 2.83333 14.6666 2.46023 14.6666 2C14.6666 1.53976 14.2935 1.16666 13.8333 1.16666C13.3731 1.16666 13 1.53976 13 2C13 2.46023 13.3731 2.83333 13.8333 2.83333Z" stroke="currentColor" stroke-linecap="round" stroke-linejoin="round"/>
<path d="M2.16665 2.83333C2.62688 2.83333 2.99998 2.46023 2.99998 2C2.99998 1.53976 2.62688 1.16666 2.16665 1.16666C1.70641 1.16666 1.33331 1.53976 1.33331 2C1.33331 2.46023 1.70641 2.83333 2.16665 2.83333Z" stroke="currentColor" stroke-linecap="round" stroke-linejoin="round"/>
</svg>
